<mxfile host="app.diagrams.net" agent="Mozilla/5.0 (Windows NT 10.0; Win64; x64) AppleWebKit/537.36 (KHTML, like Gecko) Chrome/136.0.0.0 Safari/537.36" version="27.1.6">
  <diagram name="Page-1" id="harsZ0qTJUSxTt5XLPD8">
    <mxGraphModel dx="1797" dy="959" grid="1" gridSize="10" guides="1" tooltips="1" connect="1" arrows="1" fold="1" page="1" pageScale="1" pageWidth="850" pageHeight="1100" math="0" shadow="0">
      <root>
        <mxCell id="0" />
        <mxCell id="1" parent="0" />
        <mxCell id="VwAEgQhKf6glLCc3ZZtF-72" value="" style="rounded=1;whiteSpace=wrap;html=1;fillColor=light-dark(#FFCC99,#FFCC99);" vertex="1" parent="1">
          <mxGeometry x="365.75" y="380" width="118.5" height="20" as="geometry" />
        </mxCell>
        <mxCell id="VwAEgQhKf6glLCc3ZZtF-102" style="edgeStyle=orthogonalEdgeStyle;rounded=0;orthogonalLoop=1;jettySize=auto;html=1;exitX=0.5;exitY=1;exitDx=0;exitDy=0;entryX=0;entryY=0.5;entryDx=0;entryDy=0;" edge="1" parent="1" source="VwAEgQhKf6glLCc3ZZtF-66" target="VwAEgQhKf6glLCc3ZZtF-39">
          <mxGeometry relative="1" as="geometry">
            <Array as="points">
              <mxPoint x="85" y="575" />
            </Array>
          </mxGeometry>
        </mxCell>
        <mxCell id="VwAEgQhKf6glLCc3ZZtF-66" value="" style="rounded=1;whiteSpace=wrap;html=1;fillColor=light-dark(#FFCC99,#FFCC99);" vertex="1" parent="1">
          <mxGeometry x="20" y="400" width="130" height="50" as="geometry" />
        </mxCell>
        <mxCell id="VwAEgQhKf6glLCc3ZZtF-1" value="" style="rounded=1;whiteSpace=wrap;html=1;fillColor=#FFB366;" vertex="1" parent="1">
          <mxGeometry x="300" y="10" width="250" height="60" as="geometry" />
        </mxCell>
        <mxCell id="VwAEgQhKf6glLCc3ZZtF-6" value="&lt;b&gt;&lt;font style=&quot;font-size: 14px;&quot;&gt;Phase 0: Initializing Start&lt;/font&gt;&lt;/b&gt;" style="text;html=1;align=center;verticalAlign=middle;whiteSpace=wrap;rounded=0;" vertex="1" parent="1">
          <mxGeometry x="340" y="10" width="170" height="30" as="geometry" />
        </mxCell>
        <mxCell id="VwAEgQhKf6glLCc3ZZtF-8" style="edgeStyle=orthogonalEdgeStyle;rounded=0;orthogonalLoop=1;jettySize=auto;html=1;exitX=0.5;exitY=1;exitDx=0;exitDy=0;" edge="1" parent="1" source="VwAEgQhKf6glLCc3ZZtF-7">
          <mxGeometry relative="1" as="geometry">
            <mxPoint x="425" y="100" as="targetPoint" />
          </mxGeometry>
        </mxCell>
        <mxCell id="VwAEgQhKf6glLCc3ZZtF-7" value="Marks the start of the automation workflow." style="text;html=1;align=center;verticalAlign=middle;whiteSpace=wrap;rounded=0;" vertex="1" parent="1">
          <mxGeometry x="300" y="40" width="250" height="30" as="geometry" />
        </mxCell>
        <mxCell id="VwAEgQhKf6glLCc3ZZtF-9" value="" style="rounded=1;whiteSpace=wrap;html=1;fillColor=#FFB366;" vertex="1" parent="1">
          <mxGeometry x="295" y="100" width="260" height="80" as="geometry" />
        </mxCell>
        <mxCell id="VwAEgQhKf6glLCc3ZZtF-10" value="&lt;b&gt;&lt;font style=&quot;font-size: 14px;&quot;&gt;Phase 1: Wait for Inoculation to Start&lt;/font&gt;&lt;/b&gt;" style="text;html=1;align=center;verticalAlign=middle;whiteSpace=wrap;rounded=0;" vertex="1" parent="1">
          <mxGeometry x="300" y="100" width="250" height="30" as="geometry" />
        </mxCell>
        <mxCell id="VwAEgQhKf6glLCc3ZZtF-225" style="edgeStyle=orthogonalEdgeStyle;rounded=0;orthogonalLoop=1;jettySize=auto;html=1;exitX=0.5;exitY=1;exitDx=0;exitDy=0;" edge="1" parent="1" source="VwAEgQhKf6glLCc3ZZtF-11">
          <mxGeometry relative="1" as="geometry">
            <mxPoint x="424.969696969697" y="209.9999999999999" as="targetPoint" />
          </mxGeometry>
        </mxCell>
        <mxCell id="VwAEgQhKf6glLCc3ZZtF-11" value="Waits until the process has officially started, sets the F.Cal values, and checks scale connectivity." style="text;html=1;align=center;verticalAlign=middle;whiteSpace=wrap;rounded=0;" vertex="1" parent="1">
          <mxGeometry x="300" y="130" width="250" height="50" as="geometry" />
        </mxCell>
        <mxCell id="VwAEgQhKf6glLCc3ZZtF-13" value="" style="rounded=1;whiteSpace=wrap;html=1;fillColor=#FFB366;" vertex="1" parent="1">
          <mxGeometry x="255" y="210" width="340" height="60" as="geometry" />
        </mxCell>
        <mxCell id="VwAEgQhKf6glLCc3ZZtF-14" value="&lt;b&gt;&lt;font style=&quot;font-size: 14px;&quot;&gt;Phase 2: Feed Preparation &amp;amp; Counter Increment&lt;/font&gt;&lt;/b&gt;" style="text;html=1;align=center;verticalAlign=middle;whiteSpace=wrap;rounded=0;" vertex="1" parent="1">
          <mxGeometry x="262.5" y="210" width="325" height="30" as="geometry" />
        </mxCell>
        <mxCell id="VwAEgQhKf6glLCc3ZZtF-15" style="edgeStyle=orthogonalEdgeStyle;rounded=0;orthogonalLoop=1;jettySize=auto;html=1;exitX=0.5;exitY=1;exitDx=0;exitDy=0;entryX=0.5;entryY=1;entryDx=0;entryDy=0;" edge="1" parent="1" source="VwAEgQhKf6glLCc3ZZtF-16" target="VwAEgQhKf6glLCc3ZZtF-16">
          <mxGeometry relative="1" as="geometry">
            <mxPoint x="385" y="300" as="targetPoint" />
          </mxGeometry>
        </mxCell>
        <mxCell id="VwAEgQhKf6glLCc3ZZtF-21" style="edgeStyle=orthogonalEdgeStyle;rounded=0;orthogonalLoop=1;jettySize=auto;html=1;exitX=0.5;exitY=1;exitDx=0;exitDy=0;" edge="1" parent="1" source="VwAEgQhKf6glLCc3ZZtF-16">
          <mxGeometry relative="1" as="geometry">
            <mxPoint x="425" y="300" as="targetPoint" />
          </mxGeometry>
        </mxCell>
        <mxCell id="VwAEgQhKf6glLCc3ZZtF-16" value="Set up for the feed event." style="text;html=1;align=center;verticalAlign=middle;whiteSpace=wrap;rounded=0;" vertex="1" parent="1">
          <mxGeometry x="300" y="240" width="250" height="30" as="geometry" />
        </mxCell>
        <mxCell id="VwAEgQhKf6glLCc3ZZtF-67" style="edgeStyle=orthogonalEdgeStyle;rounded=0;orthogonalLoop=1;jettySize=auto;html=1;exitX=0;exitY=0.5;exitDx=0;exitDy=0;entryX=0.5;entryY=0;entryDx=0;entryDy=0;" edge="1" parent="1" source="VwAEgQhKf6glLCc3ZZtF-17" target="VwAEgQhKf6glLCc3ZZtF-66">
          <mxGeometry relative="1" as="geometry" />
        </mxCell>
        <mxCell id="VwAEgQhKf6glLCc3ZZtF-17" value="" style="rounded=1;whiteSpace=wrap;html=1;fillColor=#FFB366;" vertex="1" parent="1">
          <mxGeometry x="230" y="300" width="390" height="60" as="geometry" />
        </mxCell>
        <mxCell id="VwAEgQhKf6glLCc3ZZtF-18" value="&lt;b&gt;&lt;font style=&quot;font-size: 14px;&quot;&gt;Phase 3: Assign Feed Targets &amp;amp; Glucose Sample Check&lt;/font&gt;&lt;/b&gt;" style="text;html=1;align=center;verticalAlign=middle;whiteSpace=wrap;rounded=0;" vertex="1" parent="1">
          <mxGeometry x="231" y="300" width="387.5" height="30" as="geometry" />
        </mxCell>
        <mxCell id="VwAEgQhKf6glLCc3ZZtF-19" style="edgeStyle=orthogonalEdgeStyle;rounded=0;orthogonalLoop=1;jettySize=auto;html=1;exitX=0.5;exitY=1;exitDx=0;exitDy=0;entryX=0.5;entryY=1;entryDx=0;entryDy=0;" edge="1" parent="1" source="VwAEgQhKf6glLCc3ZZtF-20" target="VwAEgQhKf6glLCc3ZZtF-20">
          <mxGeometry relative="1" as="geometry">
            <mxPoint x="385" y="390" as="targetPoint" />
          </mxGeometry>
        </mxCell>
        <mxCell id="VwAEgQhKf6glLCc3ZZtF-90" style="edgeStyle=orthogonalEdgeStyle;rounded=0;orthogonalLoop=1;jettySize=auto;html=1;exitX=0.5;exitY=1;exitDx=0;exitDy=0;entryX=0.5;entryY=0;entryDx=0;entryDy=0;" edge="1" parent="1" source="VwAEgQhKf6glLCc3ZZtF-20" target="VwAEgQhKf6glLCc3ZZtF-75">
          <mxGeometry relative="1" as="geometry" />
        </mxCell>
        <mxCell id="VwAEgQhKf6glLCc3ZZtF-20" value="Load target values for current feed event." style="text;html=1;align=center;verticalAlign=middle;whiteSpace=wrap;rounded=0;" vertex="1" parent="1">
          <mxGeometry x="300" y="330" width="250" height="30" as="geometry" />
        </mxCell>
        <mxCell id="VwAEgQhKf6glLCc3ZZtF-93" style="edgeStyle=orthogonalEdgeStyle;rounded=0;orthogonalLoop=1;jettySize=auto;html=1;exitX=0;exitY=0.5;exitDx=0;exitDy=0;entryX=0.5;entryY=0;entryDx=0;entryDy=0;" edge="1" parent="1" source="VwAEgQhKf6glLCc3ZZtF-30" target="VwAEgQhKf6glLCc3ZZtF-57">
          <mxGeometry relative="1" as="geometry" />
        </mxCell>
        <mxCell id="VwAEgQhKf6glLCc3ZZtF-100" style="edgeStyle=orthogonalEdgeStyle;rounded=0;orthogonalLoop=1;jettySize=auto;html=1;exitX=0.5;exitY=1;exitDx=0;exitDy=0;entryX=0.5;entryY=0;entryDx=0;entryDy=0;" edge="1" parent="1" source="VwAEgQhKf6glLCc3ZZtF-30" target="VwAEgQhKf6glLCc3ZZtF-95">
          <mxGeometry relative="1" as="geometry" />
        </mxCell>
        <mxCell id="VwAEgQhKf6glLCc3ZZtF-30" value="" style="rounded=1;whiteSpace=wrap;html=1;fillColor=#FFB366;" vertex="1" parent="1">
          <mxGeometry x="260" y="420" width="330" height="70" as="geometry" />
        </mxCell>
        <mxCell id="VwAEgQhKf6glLCc3ZZtF-31" value="&lt;b&gt;&lt;font style=&quot;font-size: 14px;&quot;&gt;Phase 4: Wait for Glucose Sample Confirmation&lt;/font&gt;&lt;/b&gt;" style="text;html=1;align=center;verticalAlign=middle;whiteSpace=wrap;rounded=0;" vertex="1" parent="1">
          <mxGeometry x="265.5" y="420" width="319" height="30" as="geometry" />
        </mxCell>
        <mxCell id="VwAEgQhKf6glLCc3ZZtF-32" style="edgeStyle=orthogonalEdgeStyle;rounded=0;orthogonalLoop=1;jettySize=auto;html=1;exitX=0.5;exitY=1;exitDx=0;exitDy=0;entryX=0.5;entryY=1;entryDx=0;entryDy=0;" edge="1" parent="1" source="VwAEgQhKf6glLCc3ZZtF-33" target="VwAEgQhKf6glLCc3ZZtF-33">
          <mxGeometry relative="1" as="geometry">
            <mxPoint x="384.5" y="510" as="targetPoint" />
          </mxGeometry>
        </mxCell>
        <mxCell id="VwAEgQhKf6glLCc3ZZtF-33" value="Wait for operator confirmation that glucose sample was taken." style="text;html=1;align=center;verticalAlign=middle;whiteSpace=wrap;rounded=0;" vertex="1" parent="1">
          <mxGeometry x="268" y="450" width="315" height="30" as="geometry" />
        </mxCell>
        <mxCell id="VwAEgQhKf6glLCc3ZZtF-107" style="edgeStyle=orthogonalEdgeStyle;rounded=0;orthogonalLoop=1;jettySize=auto;html=1;exitX=0.5;exitY=1;exitDx=0;exitDy=0;entryX=0.5;entryY=0;entryDx=0;entryDy=0;" edge="1" parent="1" source="VwAEgQhKf6glLCc3ZZtF-39" target="VwAEgQhKf6glLCc3ZZtF-106">
          <mxGeometry relative="1" as="geometry" />
        </mxCell>
        <mxCell id="VwAEgQhKf6glLCc3ZZtF-39" value="" style="rounded=1;whiteSpace=wrap;html=1;fillColor=#FFB366;" vertex="1" parent="1">
          <mxGeometry x="250" y="550" width="350" height="50" as="geometry" />
        </mxCell>
        <mxCell id="VwAEgQhKf6glLCc3ZZtF-40" value="&lt;b&gt;&lt;font style=&quot;font-size: 14px;&quot;&gt;Phase 5: Wait for Feeds to Start (Start with Feed B)&lt;/font&gt;&lt;/b&gt;" style="text;html=1;align=center;verticalAlign=middle;whiteSpace=wrap;rounded=0;" vertex="1" parent="1">
          <mxGeometry x="251" y="550" width="348" height="30" as="geometry" />
        </mxCell>
        <mxCell id="VwAEgQhKf6glLCc3ZZtF-41" style="edgeStyle=orthogonalEdgeStyle;rounded=0;orthogonalLoop=1;jettySize=auto;html=1;exitX=0.5;exitY=1;exitDx=0;exitDy=0;entryX=0.5;entryY=1;entryDx=0;entryDy=0;" edge="1" parent="1" source="VwAEgQhKf6glLCc3ZZtF-42" target="VwAEgQhKf6glLCc3ZZtF-42">
          <mxGeometry relative="1" as="geometry">
            <mxPoint x="384" y="640" as="targetPoint" />
          </mxGeometry>
        </mxCell>
        <mxCell id="VwAEgQhKf6glLCc3ZZtF-118" style="edgeStyle=orthogonalEdgeStyle;rounded=0;orthogonalLoop=1;jettySize=auto;html=1;exitX=0;exitY=1;exitDx=0;exitDy=0;entryX=0.5;entryY=0;entryDx=0;entryDy=0;" edge="1" parent="1" source="VwAEgQhKf6glLCc3ZZtF-42" target="VwAEgQhKf6glLCc3ZZtF-116">
          <mxGeometry relative="1" as="geometry" />
        </mxCell>
        <mxCell id="VwAEgQhKf6glLCc3ZZtF-42" value="Wait until it is time to begin Feed B (volumetric)." style="text;html=1;align=center;verticalAlign=middle;whiteSpace=wrap;rounded=0;" vertex="1" parent="1">
          <mxGeometry x="295" y="570" width="261" height="30" as="geometry" />
        </mxCell>
        <mxCell id="VwAEgQhKf6glLCc3ZZtF-55" value="&lt;font style=&quot;font-size: 11px;&quot;&gt;&lt;i style=&quot;background-color: light-dark(rgb(255, 204, 153), rgb(255, 204, 153));&quot;&gt;If process day = 0&lt;/i&gt;&lt;/font&gt;&lt;div&gt;&lt;font style=&quot;font-size: 11px;&quot;&gt;&lt;i style=&quot;background-color: light-dark(rgb(255, 204, 153), rgb(255, 204, 153));&quot;&gt;OR&lt;/i&gt;&lt;/font&gt;&lt;/div&gt;&lt;div&gt;&lt;font style=&quot;font-size: 11px;&quot;&gt;&lt;i style=&quot;background-color: light-dark(rgb(255, 204, 153), rgb(255, 204, 153));&quot;&gt;When sample confirmed&lt;/i&gt;&lt;/font&gt;&lt;/div&gt;" style="text;html=1;align=center;verticalAlign=middle;whiteSpace=wrap;rounded=0;" vertex="1" parent="1">
          <mxGeometry x="20" y="410" width="130" height="30" as="geometry" />
        </mxCell>
        <mxCell id="VwAEgQhKf6glLCc3ZZtF-61" value="" style="rounded=1;whiteSpace=wrap;html=1;fillColor=#00FFFF;" vertex="1" parent="1">
          <mxGeometry x="290" y="660" width="270" height="50" as="geometry" />
        </mxCell>
        <mxCell id="VwAEgQhKf6glLCc3ZZtF-62" value="&lt;b&gt;&lt;font style=&quot;font-size: 14px;&quot;&gt;Phase 6: Feed B (Pump D, Volumetric)&lt;/font&gt;&lt;/b&gt;" style="text;html=1;align=center;verticalAlign=middle;whiteSpace=wrap;rounded=0;" vertex="1" parent="1">
          <mxGeometry x="295" y="660" width="260" height="30" as="geometry" />
        </mxCell>
        <mxCell id="VwAEgQhKf6glLCc3ZZtF-63" style="edgeStyle=orthogonalEdgeStyle;rounded=0;orthogonalLoop=1;jettySize=auto;html=1;exitX=0.5;exitY=1;exitDx=0;exitDy=0;entryX=0.5;entryY=1;entryDx=0;entryDy=0;" edge="1" parent="1" source="VwAEgQhKf6glLCc3ZZtF-64" target="VwAEgQhKf6glLCc3ZZtF-64">
          <mxGeometry relative="1" as="geometry">
            <mxPoint x="384" y="750" as="targetPoint" />
          </mxGeometry>
        </mxCell>
        <mxCell id="VwAEgQhKf6glLCc3ZZtF-113" style="edgeStyle=orthogonalEdgeStyle;rounded=0;orthogonalLoop=1;jettySize=auto;html=1;exitX=0.5;exitY=1;exitDx=0;exitDy=0;entryX=0.5;entryY=0;entryDx=0;entryDy=0;" edge="1" parent="1" source="VwAEgQhKf6glLCc3ZZtF-64" target="VwAEgQhKf6glLCc3ZZtF-110">
          <mxGeometry relative="1" as="geometry" />
        </mxCell>
        <mxCell id="VwAEgQhKf6glLCc3ZZtF-64" value="Dispense a set volume using pump D." style="text;html=1;align=center;verticalAlign=middle;whiteSpace=wrap;rounded=0;" vertex="1" parent="1">
          <mxGeometry x="321.75" y="680" width="206.5" height="30" as="geometry" />
        </mxCell>
        <mxCell id="VwAEgQhKf6glLCc3ZZtF-65" value="" style="rounded=1;whiteSpace=wrap;html=1;fillColor=light-dark(#FFCC99,#FFCC99);arcSize=23;" vertex="1" parent="1">
          <mxGeometry x="100" y="480" width="140" height="70" as="geometry" />
        </mxCell>
        <mxCell id="VwAEgQhKf6glLCc3ZZtF-103" style="edgeStyle=orthogonalEdgeStyle;rounded=0;orthogonalLoop=1;jettySize=auto;html=1;exitX=0.5;exitY=1;exitDx=0;exitDy=0;entryX=0;entryY=0.5;entryDx=0;entryDy=0;" edge="1" parent="1" source="VwAEgQhKf6glLCc3ZZtF-57" target="VwAEgQhKf6glLCc3ZZtF-39">
          <mxGeometry relative="1" as="geometry">
            <mxPoint x="170" y="570" as="targetPoint" />
            <Array as="points">
              <mxPoint x="170" y="575" />
            </Array>
          </mxGeometry>
        </mxCell>
        <mxCell id="VwAEgQhKf6glLCc3ZZtF-57" value="&lt;span style=&quot;font-size: 11px; background-color: rgb(255, 204, 153);&quot;&gt;&lt;i&gt;When sample confirmation missed after 8 hours&amp;nbsp;&lt;/i&gt;&lt;/span&gt;&lt;div&gt;&lt;span style=&quot;font-size: 11px; background-color: rgb(255, 204, 153);&quot;&gt;&lt;i&gt;OR&lt;/i&gt;&lt;/span&gt;&lt;/div&gt;&lt;div&gt;&lt;span style=&quot;font-size: 11px; background-color: rgb(255, 204, 153);&quot;&gt;&lt;i&gt;&amp;nbsp;Set sample delay&lt;/i&gt;&lt;/span&gt;&lt;/div&gt;" style="text;html=1;align=center;verticalAlign=middle;whiteSpace=wrap;rounded=0;fillColor=none;" vertex="1" parent="1">
          <mxGeometry x="100" y="480" width="140" height="70" as="geometry" />
        </mxCell>
        <mxCell id="VwAEgQhKf6glLCc3ZZtF-92" style="edgeStyle=orthogonalEdgeStyle;rounded=0;orthogonalLoop=1;jettySize=auto;html=1;exitX=0.5;exitY=1;exitDx=0;exitDy=0;entryX=0.5;entryY=0;entryDx=0;entryDy=0;" edge="1" parent="1" source="VwAEgQhKf6glLCc3ZZtF-75" target="VwAEgQhKf6glLCc3ZZtF-31">
          <mxGeometry relative="1" as="geometry" />
        </mxCell>
        <mxCell id="VwAEgQhKf6glLCc3ZZtF-75" value="&lt;i&gt;&lt;font style=&quot;font-size: 11px;&quot;&gt;No sample confirmed&lt;/font&gt;&lt;/i&gt;" style="text;html=1;align=center;verticalAlign=middle;whiteSpace=wrap;rounded=0;" vertex="1" parent="1">
          <mxGeometry x="365" y="380" width="120" height="20" as="geometry" />
        </mxCell>
        <mxCell id="VwAEgQhKf6glLCc3ZZtF-94" value="" style="rounded=1;whiteSpace=wrap;html=1;fillColor=light-dark(#FFCC99,#FFCC99);" vertex="1" parent="1">
          <mxGeometry x="375" y="510" width="99.25" height="20" as="geometry" />
        </mxCell>
        <mxCell id="VwAEgQhKf6glLCc3ZZtF-101" style="edgeStyle=orthogonalEdgeStyle;rounded=0;orthogonalLoop=1;jettySize=auto;html=1;exitX=0.5;exitY=1;exitDx=0;exitDy=0;entryX=0.5;entryY=0;entryDx=0;entryDy=0;" edge="1" parent="1" source="VwAEgQhKf6glLCc3ZZtF-95" target="VwAEgQhKf6glLCc3ZZtF-40">
          <mxGeometry relative="1" as="geometry" />
        </mxCell>
        <mxCell id="VwAEgQhKf6glLCc3ZZtF-95" value="&lt;i&gt;&lt;font style=&quot;font-size: 11px;&quot;&gt;Sample confirmed&lt;/font&gt;&lt;/i&gt;" style="text;html=1;align=center;verticalAlign=middle;whiteSpace=wrap;rounded=0;" vertex="1" parent="1">
          <mxGeometry x="379.25" y="510" width="90.75" height="20" as="geometry" />
        </mxCell>
        <mxCell id="VwAEgQhKf6glLCc3ZZtF-105" value="" style="rounded=1;whiteSpace=wrap;html=1;fillColor=light-dark(#FFCC99,#FFCC99);" vertex="1" parent="1">
          <mxGeometry x="355" y="620" width="140" height="20" as="geometry" />
        </mxCell>
        <mxCell id="VwAEgQhKf6glLCc3ZZtF-108" style="edgeStyle=orthogonalEdgeStyle;rounded=0;orthogonalLoop=1;jettySize=auto;html=1;exitX=0.5;exitY=1;exitDx=0;exitDy=0;entryX=0.5;entryY=0;entryDx=0;entryDy=0;" edge="1" parent="1" source="VwAEgQhKf6glLCc3ZZtF-106" target="VwAEgQhKf6glLCc3ZZtF-62">
          <mxGeometry relative="1" as="geometry" />
        </mxCell>
        <mxCell id="VwAEgQhKf6glLCc3ZZtF-106" value="&lt;font style=&quot;font-size: 11px;&quot;&gt;&lt;i&gt;If Feed B target volume &amp;gt; 0&amp;nbsp;&lt;/i&gt;&lt;/font&gt;" style="text;html=1;align=center;verticalAlign=middle;whiteSpace=wrap;rounded=0;fillColor=none;" vertex="1" parent="1">
          <mxGeometry x="354.62" y="620" width="140" height="20" as="geometry" />
        </mxCell>
        <mxCell id="VwAEgQhKf6glLCc3ZZtF-109" value="" style="rounded=1;whiteSpace=wrap;html=1;fillColor=#FFB366;" vertex="1" parent="1">
          <mxGeometry x="225" y="740" width="400" height="50" as="geometry" />
        </mxCell>
        <mxCell id="VwAEgQhKf6glLCc3ZZtF-110" value="&lt;b&gt;&lt;font style=&quot;font-size: 14px;&quot;&gt;Phase 7: Post-Feed B Setup / Record Feed A Start Weight&lt;/font&gt;&lt;/b&gt;" style="text;html=1;align=center;verticalAlign=middle;whiteSpace=wrap;rounded=0;" vertex="1" parent="1">
          <mxGeometry x="230" y="740" width="390" height="30" as="geometry" />
        </mxCell>
        <mxCell id="VwAEgQhKf6glLCc3ZZtF-111" style="edgeStyle=orthogonalEdgeStyle;rounded=0;orthogonalLoop=1;jettySize=auto;html=1;exitX=0.5;exitY=1;exitDx=0;exitDy=0;entryX=0.5;entryY=1;entryDx=0;entryDy=0;" edge="1" parent="1" source="VwAEgQhKf6glLCc3ZZtF-112" target="VwAEgQhKf6glLCc3ZZtF-112">
          <mxGeometry relative="1" as="geometry">
            <mxPoint x="9" y="820" as="targetPoint" />
          </mxGeometry>
        </mxCell>
        <mxCell id="VwAEgQhKf6glLCc3ZZtF-130" style="edgeStyle=orthogonalEdgeStyle;rounded=0;orthogonalLoop=1;jettySize=auto;html=1;exitX=0.5;exitY=1;exitDx=0;exitDy=0;entryX=0.5;entryY=1;entryDx=0;entryDy=0;" edge="1" parent="1" source="VwAEgQhKf6glLCc3ZZtF-112" target="VwAEgQhKf6glLCc3ZZtF-112">
          <mxGeometry relative="1" as="geometry">
            <mxPoint x="425.344827586207" y="810" as="targetPoint" />
          </mxGeometry>
        </mxCell>
        <mxCell id="VwAEgQhKf6glLCc3ZZtF-131" style="edgeStyle=orthogonalEdgeStyle;rounded=0;orthogonalLoop=1;jettySize=auto;html=1;exitX=0.5;exitY=1;exitDx=0;exitDy=0;" edge="1" parent="1" source="VwAEgQhKf6glLCc3ZZtF-112">
          <mxGeometry relative="1" as="geometry">
            <mxPoint x="425.344827586207" y="820" as="targetPoint" />
          </mxGeometry>
        </mxCell>
        <mxCell id="VwAEgQhKf6glLCc3ZZtF-112" value="Prep for Feed A (gravimetric) and checks scale connectivity again." style="text;html=1;align=center;verticalAlign=middle;whiteSpace=wrap;rounded=0;" vertex="1" parent="1">
          <mxGeometry x="247" y="760" width="357" height="30" as="geometry" />
        </mxCell>
        <mxCell id="VwAEgQhKf6glLCc3ZZtF-115" value="" style="rounded=1;whiteSpace=wrap;html=1;fillColor=light-dark(#FFCC99,#FFCC99);" vertex="1" parent="1">
          <mxGeometry x="90" y="675" width="140" height="20" as="geometry" />
        </mxCell>
        <mxCell id="VwAEgQhKf6glLCc3ZZtF-119" style="edgeStyle=orthogonalEdgeStyle;rounded=0;orthogonalLoop=1;jettySize=auto;html=1;exitX=0.5;exitY=1;exitDx=0;exitDy=0;entryX=0;entryY=0.5;entryDx=0;entryDy=0;" edge="1" parent="1" source="VwAEgQhKf6glLCc3ZZtF-116" target="VwAEgQhKf6glLCc3ZZtF-109">
          <mxGeometry relative="1" as="geometry" />
        </mxCell>
        <mxCell id="VwAEgQhKf6glLCc3ZZtF-116" value="&lt;font style=&quot;font-size: 11px;&quot;&gt;&lt;i&gt;If Feed B target volume = 0&lt;/i&gt;&lt;/font&gt;" style="text;html=1;align=center;verticalAlign=middle;whiteSpace=wrap;rounded=0;" vertex="1" parent="1">
          <mxGeometry x="90" y="675" width="140" height="20" as="geometry" />
        </mxCell>
        <mxCell id="VwAEgQhKf6glLCc3ZZtF-126" value="" style="rounded=1;whiteSpace=wrap;html=1;fillColor=#FFB366;" vertex="1" parent="1">
          <mxGeometry x="270.5" y="820" width="310" height="60" as="geometry" />
        </mxCell>
        <mxCell id="VwAEgQhKf6glLCc3ZZtF-155" style="edgeStyle=orthogonalEdgeStyle;rounded=0;orthogonalLoop=1;jettySize=auto;html=1;exitX=0;exitY=0.75;exitDx=0;exitDy=0;entryX=0.5;entryY=0;entryDx=0;entryDy=0;" edge="1" parent="1" source="VwAEgQhKf6glLCc3ZZtF-127" target="VwAEgQhKf6glLCc3ZZtF-154">
          <mxGeometry relative="1" as="geometry" />
        </mxCell>
        <mxCell id="VwAEgQhKf6glLCc3ZZtF-127" value="&lt;b&gt;&lt;font style=&quot;font-size: 14px;&quot;&gt;Phase 8: Record Feed A Interval Start Weight&lt;/font&gt;&lt;/b&gt;" style="text;html=1;align=center;verticalAlign=middle;whiteSpace=wrap;rounded=0;" vertex="1" parent="1">
          <mxGeometry x="270.5" y="820" width="310" height="30" as="geometry" />
        </mxCell>
        <mxCell id="VwAEgQhKf6glLCc3ZZtF-128" style="edgeStyle=orthogonalEdgeStyle;rounded=0;orthogonalLoop=1;jettySize=auto;html=1;exitX=0.5;exitY=1;exitDx=0;exitDy=0;entryX=0.5;entryY=1;entryDx=0;entryDy=0;" edge="1" parent="1" source="VwAEgQhKf6glLCc3ZZtF-129" target="VwAEgQhKf6glLCc3ZZtF-129">
          <mxGeometry relative="1" as="geometry">
            <mxPoint x="54.5" y="900" as="targetPoint" />
          </mxGeometry>
        </mxCell>
        <mxCell id="VwAEgQhKf6glLCc3ZZtF-227" style="edgeStyle=orthogonalEdgeStyle;rounded=0;orthogonalLoop=1;jettySize=auto;html=1;exitX=0.5;exitY=1;exitDx=0;exitDy=0;entryX=0.5;entryY=0;entryDx=0;entryDy=0;" edge="1" parent="1" source="VwAEgQhKf6glLCc3ZZtF-129" target="VwAEgQhKf6glLCc3ZZtF-138">
          <mxGeometry relative="1" as="geometry" />
        </mxCell>
        <mxCell id="VwAEgQhKf6glLCc3ZZtF-129" value="Record weight just before Feed A starts and again checks scale connectivity." style="text;html=1;align=center;verticalAlign=middle;whiteSpace=wrap;rounded=0;" vertex="1" parent="1">
          <mxGeometry x="310" y="840" width="231" height="40" as="geometry" />
        </mxCell>
        <mxCell id="VwAEgQhKf6glLCc3ZZtF-132" value="" style="rounded=1;whiteSpace=wrap;html=1;fillColor=#00FFFF;" vertex="1" parent="1">
          <mxGeometry x="289.5" y="940" width="270" height="50" as="geometry" />
        </mxCell>
        <mxCell id="VwAEgQhKf6glLCc3ZZtF-133" value="&lt;b&gt;&lt;font style=&quot;font-size: 14px;&quot;&gt;Phase 9: Feed A (Pump C, Gravimetric)&lt;/font&gt;&lt;/b&gt;" style="text;html=1;align=center;verticalAlign=middle;whiteSpace=wrap;rounded=0;" vertex="1" parent="1">
          <mxGeometry x="289.5" y="940" width="270" height="30" as="geometry" />
        </mxCell>
        <mxCell id="VwAEgQhKf6glLCc3ZZtF-134" style="edgeStyle=orthogonalEdgeStyle;rounded=0;orthogonalLoop=1;jettySize=auto;html=1;exitX=0.5;exitY=1;exitDx=0;exitDy=0;entryX=0.5;entryY=1;entryDx=0;entryDy=0;" edge="1" parent="1" source="VwAEgQhKf6glLCc3ZZtF-135" target="VwAEgQhKf6glLCc3ZZtF-135">
          <mxGeometry relative="1" as="geometry">
            <mxPoint x="73.5" y="1020" as="targetPoint" />
          </mxGeometry>
        </mxCell>
        <mxCell id="VwAEgQhKf6glLCc3ZZtF-147" style="edgeStyle=orthogonalEdgeStyle;rounded=0;orthogonalLoop=1;jettySize=auto;html=1;exitX=0.5;exitY=1;exitDx=0;exitDy=0;" edge="1" parent="1" source="VwAEgQhKf6glLCc3ZZtF-135">
          <mxGeometry relative="1" as="geometry">
            <mxPoint x="424.2857142857142" y="1010" as="targetPoint" />
          </mxGeometry>
        </mxCell>
        <mxCell id="VwAEgQhKf6glLCc3ZZtF-135" value="Deliver a specific weight of Feed A." style="text;html=1;align=center;verticalAlign=middle;whiteSpace=wrap;rounded=0;" vertex="1" parent="1">
          <mxGeometry x="328.25" y="960" width="192.5" height="30" as="geometry" />
        </mxCell>
        <mxCell id="VwAEgQhKf6glLCc3ZZtF-137" value="" style="rounded=1;whiteSpace=wrap;html=1;fillColor=light-dark(#FFCC99,#FFCC99);" vertex="1" parent="1">
          <mxGeometry x="354.5" y="900" width="140" height="20" as="geometry" />
        </mxCell>
        <mxCell id="VwAEgQhKf6glLCc3ZZtF-230" style="edgeStyle=orthogonalEdgeStyle;rounded=0;orthogonalLoop=1;jettySize=auto;html=1;exitX=0.5;exitY=1;exitDx=0;exitDy=0;entryX=0.5;entryY=0;entryDx=0;entryDy=0;" edge="1" parent="1" source="VwAEgQhKf6glLCc3ZZtF-138" target="VwAEgQhKf6glLCc3ZZtF-133">
          <mxGeometry relative="1" as="geometry" />
        </mxCell>
        <mxCell id="VwAEgQhKf6glLCc3ZZtF-138" value="&lt;font style=&quot;font-size: 11px;&quot;&gt;&lt;i&gt;If Feed A target weight &amp;gt; 0&amp;nbsp;&lt;/i&gt;&lt;/font&gt;" style="text;html=1;align=center;verticalAlign=middle;whiteSpace=wrap;rounded=0;fillColor=none;" vertex="1" parent="1">
          <mxGeometry x="355.5" y="900" width="140" height="20" as="geometry" />
        </mxCell>
        <mxCell id="VwAEgQhKf6glLCc3ZZtF-145" value="" style="rounded=1;whiteSpace=wrap;html=1;fillColor=light-dark(#FFCC99,#FFCC99);" vertex="1" parent="1">
          <mxGeometry x="364" y="1010" width="120" height="20" as="geometry" />
        </mxCell>
        <mxCell id="VwAEgQhKf6glLCc3ZZtF-148" style="edgeStyle=orthogonalEdgeStyle;rounded=0;orthogonalLoop=1;jettySize=auto;html=1;exitX=0.5;exitY=1;exitDx=0;exitDy=0;" edge="1" parent="1" source="VwAEgQhKf6glLCc3ZZtF-146">
          <mxGeometry relative="1" as="geometry">
            <mxPoint x="424.2857142857142" y="1050" as="targetPoint" />
          </mxGeometry>
        </mxCell>
        <mxCell id="VwAEgQhKf6glLCc3ZZtF-146" value="&lt;font style=&quot;font-size: 11px;&quot;&gt;&lt;i&gt;If Feed target reached&lt;/i&gt;&lt;/font&gt;" style="text;html=1;align=center;verticalAlign=middle;whiteSpace=wrap;rounded=0;fillColor=none;" vertex="1" parent="1">
          <mxGeometry x="363.75" y="1010" width="120" height="20" as="geometry" />
        </mxCell>
        <mxCell id="VwAEgQhKf6glLCc3ZZtF-177" style="edgeStyle=orthogonalEdgeStyle;rounded=0;orthogonalLoop=1;jettySize=auto;html=1;exitX=0.25;exitY=1;exitDx=0;exitDy=0;entryX=0.5;entryY=0;entryDx=0;entryDy=0;" edge="1" parent="1" source="VwAEgQhKf6glLCc3ZZtF-149" target="VwAEgQhKf6glLCc3ZZtF-176">
          <mxGeometry relative="1" as="geometry" />
        </mxCell>
        <mxCell id="VwAEgQhKf6glLCc3ZZtF-149" value="" style="rounded=1;whiteSpace=wrap;html=1;fillColor=#FFB366;" vertex="1" parent="1">
          <mxGeometry x="309" y="1050" width="230" height="50" as="geometry" />
        </mxCell>
        <mxCell id="VwAEgQhKf6glLCc3ZZtF-150" value="&lt;b&gt;&lt;font style=&quot;font-size: 14px;&quot;&gt;Phase 10: Glucose Feed Decision&lt;/font&gt;&lt;/b&gt;" style="text;html=1;align=center;verticalAlign=middle;whiteSpace=wrap;rounded=0;" vertex="1" parent="1">
          <mxGeometry x="309" y="1050" width="230" height="30" as="geometry" />
        </mxCell>
        <mxCell id="VwAEgQhKf6glLCc3ZZtF-151" style="edgeStyle=orthogonalEdgeStyle;rounded=0;orthogonalLoop=1;jettySize=auto;html=1;exitX=0.5;exitY=1;exitDx=0;exitDy=0;entryX=0.5;entryY=1;entryDx=0;entryDy=0;" edge="1" parent="1" source="VwAEgQhKf6glLCc3ZZtF-152" target="VwAEgQhKf6glLCc3ZZtF-152">
          <mxGeometry relative="1" as="geometry">
            <mxPoint x="103" y="1090" as="targetPoint" />
          </mxGeometry>
        </mxCell>
        <mxCell id="VwAEgQhKf6glLCc3ZZtF-160" style="edgeStyle=orthogonalEdgeStyle;rounded=0;orthogonalLoop=1;jettySize=auto;html=1;exitX=0.5;exitY=1;exitDx=0;exitDy=0;" edge="1" parent="1" source="VwAEgQhKf6glLCc3ZZtF-152">
          <mxGeometry relative="1" as="geometry">
            <mxPoint x="424.04761904761904" y="1120" as="targetPoint" />
          </mxGeometry>
        </mxCell>
        <mxCell id="VwAEgQhKf6glLCc3ZZtF-152" value="Sample to see if Glucose is needed." style="text;html=1;align=center;verticalAlign=middle;whiteSpace=wrap;rounded=0;" vertex="1" parent="1">
          <mxGeometry x="317" y="1070" width="210" height="30" as="geometry" />
        </mxCell>
        <mxCell id="VwAEgQhKf6glLCc3ZZtF-153" value="" style="rounded=1;whiteSpace=wrap;html=1;fillColor=light-dark(#FFCC99,#FFCC99);" vertex="1" parent="1">
          <mxGeometry x="90" y="955" width="140" height="20" as="geometry" />
        </mxCell>
        <mxCell id="VwAEgQhKf6glLCc3ZZtF-157" style="edgeStyle=orthogonalEdgeStyle;rounded=0;orthogonalLoop=1;jettySize=auto;html=1;exitX=0.5;exitY=1;exitDx=0;exitDy=0;entryX=0;entryY=0.75;entryDx=0;entryDy=0;" edge="1" parent="1" source="VwAEgQhKf6glLCc3ZZtF-154" target="VwAEgQhKf6glLCc3ZZtF-150">
          <mxGeometry relative="1" as="geometry" />
        </mxCell>
        <mxCell id="VwAEgQhKf6glLCc3ZZtF-154" value="&lt;font style=&quot;font-size: 11px;&quot;&gt;&lt;i&gt;If Feed A target weight&lt;/i&gt;&lt;/font&gt;&lt;i style=&quot;font-size: 11px; background-color: transparent; color: light-dark(rgb(0, 0, 0), rgb(255, 255, 255));&quot;&gt;&amp;nbsp;= 0&lt;/i&gt;" style="text;html=1;align=center;verticalAlign=middle;whiteSpace=wrap;rounded=0;" vertex="1" parent="1">
          <mxGeometry x="90" y="955" width="140" height="20" as="geometry" />
        </mxCell>
        <mxCell id="VwAEgQhKf6glLCc3ZZtF-158" value="" style="rounded=1;whiteSpace=wrap;html=1;fillColor=light-dark(#FFCC99,#FFCC99);" vertex="1" parent="1">
          <mxGeometry x="379" y="1120" width="90" height="20" as="geometry" />
        </mxCell>
        <mxCell id="VwAEgQhKf6glLCc3ZZtF-161" style="edgeStyle=orthogonalEdgeStyle;rounded=0;orthogonalLoop=1;jettySize=auto;html=1;exitX=0.5;exitY=1;exitDx=0;exitDy=0;" edge="1" parent="1" source="VwAEgQhKf6glLCc3ZZtF-159">
          <mxGeometry relative="1" as="geometry">
            <mxPoint x="424.04761904761904" y="1160" as="targetPoint" />
          </mxGeometry>
        </mxCell>
        <mxCell id="VwAEgQhKf6glLCc3ZZtF-159" value="&lt;font style=&quot;font-size: 11px;&quot;&gt;&lt;i&gt;If not confirmed&lt;/i&gt;&lt;/font&gt;" style="text;html=1;align=center;verticalAlign=middle;whiteSpace=wrap;rounded=0;fillColor=none;" vertex="1" parent="1">
          <mxGeometry x="384" y="1120" width="80" height="20" as="geometry" />
        </mxCell>
        <mxCell id="VwAEgQhKf6glLCc3ZZtF-213" style="edgeStyle=orthogonalEdgeStyle;rounded=0;orthogonalLoop=1;jettySize=auto;html=1;exitX=1;exitY=0.5;exitDx=0;exitDy=0;entryX=0.5;entryY=0;entryDx=0;entryDy=0;" edge="1" parent="1" source="VwAEgQhKf6glLCc3ZZtF-162" target="VwAEgQhKf6glLCc3ZZtF-206">
          <mxGeometry relative="1" as="geometry" />
        </mxCell>
        <mxCell id="VwAEgQhKf6glLCc3ZZtF-162" value="" style="rounded=1;whiteSpace=wrap;html=1;fillColor=#FFB366;" vertex="1" parent="1">
          <mxGeometry x="309" y="1160.48" width="230" height="50" as="geometry" />
        </mxCell>
        <mxCell id="VwAEgQhKf6glLCc3ZZtF-163" value="&lt;b&gt;&lt;font style=&quot;font-size: 14px;&quot;&gt;Phase 11: Wait or Skip Glucose&lt;/font&gt;&lt;/b&gt;" style="text;html=1;align=center;verticalAlign=middle;whiteSpace=wrap;rounded=0;" vertex="1" parent="1">
          <mxGeometry x="319" y="1160" width="210" height="30" as="geometry" />
        </mxCell>
        <mxCell id="VwAEgQhKf6glLCc3ZZtF-164" style="edgeStyle=orthogonalEdgeStyle;rounded=0;orthogonalLoop=1;jettySize=auto;html=1;exitX=0.5;exitY=1;exitDx=0;exitDy=0;entryX=0.5;entryY=1;entryDx=0;entryDy=0;" edge="1" parent="1" source="VwAEgQhKf6glLCc3ZZtF-165" target="VwAEgQhKf6glLCc3ZZtF-165">
          <mxGeometry relative="1" as="geometry">
            <mxPoint x="103" y="1200" as="targetPoint" />
          </mxGeometry>
        </mxCell>
        <mxCell id="VwAEgQhKf6glLCc3ZZtF-169" style="edgeStyle=orthogonalEdgeStyle;rounded=0;orthogonalLoop=1;jettySize=auto;html=1;exitX=0.5;exitY=1;exitDx=0;exitDy=0;" edge="1" parent="1" source="VwAEgQhKf6glLCc3ZZtF-165">
          <mxGeometry relative="1" as="geometry">
            <mxPoint x="424.2857142857142" y="1230" as="targetPoint" />
          </mxGeometry>
        </mxCell>
        <mxCell id="VwAEgQhKf6glLCc3ZZtF-165" value="Handle unconfirmed glucose sample." style="text;html=1;align=center;verticalAlign=middle;whiteSpace=wrap;rounded=0;" vertex="1" parent="1">
          <mxGeometry x="324" y="1180" width="200" height="30" as="geometry" />
        </mxCell>
        <mxCell id="VwAEgQhKf6glLCc3ZZtF-166" value="" style="rounded=1;whiteSpace=wrap;html=1;fillColor=light-dark(#FFCC99,#FFCC99);" vertex="1" parent="1">
          <mxGeometry x="389.25" y="1230" width="69.5" height="20" as="geometry" />
        </mxCell>
        <mxCell id="VwAEgQhKf6glLCc3ZZtF-170" style="edgeStyle=orthogonalEdgeStyle;rounded=0;orthogonalLoop=1;jettySize=auto;html=1;exitX=0.5;exitY=1;exitDx=0;exitDy=0;" edge="1" parent="1" source="VwAEgQhKf6glLCc3ZZtF-167">
          <mxGeometry relative="1" as="geometry">
            <mxPoint x="424.2857142857142" y="1270" as="targetPoint" />
          </mxGeometry>
        </mxCell>
        <mxCell id="VwAEgQhKf6glLCc3ZZtF-167" value="&lt;font style=&quot;font-size: 11px;&quot;&gt;&lt;i&gt;If confirmed&lt;/i&gt;&lt;/font&gt;" style="text;html=1;align=center;verticalAlign=middle;whiteSpace=wrap;rounded=0;fillColor=none;" vertex="1" parent="1">
          <mxGeometry x="384" y="1230" width="80" height="20" as="geometry" />
        </mxCell>
        <mxCell id="VwAEgQhKf6glLCc3ZZtF-171" value="" style="rounded=1;whiteSpace=wrap;html=1;fillColor=#FFB366;" vertex="1" parent="1">
          <mxGeometry x="259" y="1270" width="330" height="50" as="geometry" />
        </mxCell>
        <mxCell id="VwAEgQhKf6glLCc3ZZtF-172" value="&lt;b&gt;&lt;font style=&quot;font-size: 14px;&quot;&gt;Phase 12: Record Glucose Start Weight &amp;amp; Target&lt;/font&gt;&lt;/b&gt;" style="text;html=1;align=center;verticalAlign=middle;whiteSpace=wrap;rounded=0;" vertex="1" parent="1">
          <mxGeometry x="259" y="1270" width="330" height="30" as="geometry" />
        </mxCell>
        <mxCell id="VwAEgQhKf6glLCc3ZZtF-173" style="edgeStyle=orthogonalEdgeStyle;rounded=0;orthogonalLoop=1;jettySize=auto;html=1;exitX=0.5;exitY=1;exitDx=0;exitDy=0;entryX=0.5;entryY=1;entryDx=0;entryDy=0;" edge="1" parent="1" source="VwAEgQhKf6glLCc3ZZtF-174" target="VwAEgQhKf6glLCc3ZZtF-174">
          <mxGeometry relative="1" as="geometry">
            <mxPoint x="63" y="1330" as="targetPoint" />
          </mxGeometry>
        </mxCell>
        <mxCell id="VwAEgQhKf6glLCc3ZZtF-183" style="edgeStyle=orthogonalEdgeStyle;rounded=0;orthogonalLoop=1;jettySize=auto;html=1;exitX=0.5;exitY=1;exitDx=0;exitDy=0;" edge="1" parent="1" source="VwAEgQhKf6glLCc3ZZtF-174">
          <mxGeometry relative="1" as="geometry">
            <mxPoint x="424.2857142857142" y="1350" as="targetPoint" />
          </mxGeometry>
        </mxCell>
        <mxCell id="VwAEgQhKf6glLCc3ZZtF-174" value="Setup for Glucose feed and checks scale connectivity." style="text;html=1;align=center;verticalAlign=middle;whiteSpace=wrap;rounded=0;" vertex="1" parent="1">
          <mxGeometry x="279" y="1290" width="291" height="30" as="geometry" />
        </mxCell>
        <mxCell id="VwAEgQhKf6glLCc3ZZtF-175" value="" style="rounded=1;whiteSpace=wrap;html=1;fillColor=light-dark(#FFCC99,#FFCC99);" vertex="1" parent="1">
          <mxGeometry x="160.5" y="1185" width="110" height="20" as="geometry" />
        </mxCell>
        <mxCell id="VwAEgQhKf6glLCc3ZZtF-176" value="&lt;font style=&quot;font-size: 11px;&quot;&gt;&lt;i&gt;If sample confirmed&lt;/i&gt;&lt;/font&gt;" style="text;html=1;align=center;verticalAlign=middle;whiteSpace=wrap;rounded=0;fillColor=none;" vertex="1" parent="1">
          <mxGeometry x="163" y="1185" width="105" height="20" as="geometry" />
        </mxCell>
        <mxCell id="VwAEgQhKf6glLCc3ZZtF-178" style="edgeStyle=orthogonalEdgeStyle;rounded=0;orthogonalLoop=1;jettySize=auto;html=1;exitX=0.5;exitY=1;exitDx=0;exitDy=0;entryX=-0.001;entryY=0.886;entryDx=0;entryDy=0;entryPerimeter=0;" edge="1" parent="1" source="VwAEgQhKf6glLCc3ZZtF-176" target="VwAEgQhKf6glLCc3ZZtF-172">
          <mxGeometry relative="1" as="geometry" />
        </mxCell>
        <mxCell id="VwAEgQhKf6glLCc3ZZtF-179" value="" style="rounded=1;whiteSpace=wrap;html=1;fillColor=#FFB366;" vertex="1" parent="1">
          <mxGeometry x="304.5" y="1350" width="240" height="50" as="geometry" />
        </mxCell>
        <mxCell id="VwAEgQhKf6glLCc3ZZtF-211" style="edgeStyle=orthogonalEdgeStyle;rounded=0;orthogonalLoop=1;jettySize=auto;html=1;exitX=0;exitY=0.75;exitDx=0;exitDy=0;entryX=0.5;entryY=0;entryDx=0;entryDy=0;" edge="1" parent="1" source="VwAEgQhKf6glLCc3ZZtF-180" target="VwAEgQhKf6glLCc3ZZtF-210">
          <mxGeometry relative="1" as="geometry" />
        </mxCell>
        <mxCell id="VwAEgQhKf6glLCc3ZZtF-180" value="&lt;b&gt;&lt;font style=&quot;font-size: 14px;&quot;&gt;Phase 13: Glucose Feed Pre-Check&lt;/font&gt;&lt;/b&gt;" style="text;html=1;align=center;verticalAlign=middle;whiteSpace=wrap;rounded=0;" vertex="1" parent="1">
          <mxGeometry x="304.5" y="1350" width="240" height="30" as="geometry" />
        </mxCell>
        <mxCell id="VwAEgQhKf6glLCc3ZZtF-181" style="edgeStyle=orthogonalEdgeStyle;rounded=0;orthogonalLoop=1;jettySize=auto;html=1;exitX=0.5;exitY=1;exitDx=0;exitDy=0;entryX=0.5;entryY=1;entryDx=0;entryDy=0;" edge="1" parent="1" source="VwAEgQhKf6glLCc3ZZtF-182" target="VwAEgQhKf6glLCc3ZZtF-182">
          <mxGeometry relative="1" as="geometry">
            <mxPoint x="108.5" y="1410" as="targetPoint" />
          </mxGeometry>
        </mxCell>
        <mxCell id="VwAEgQhKf6glLCc3ZZtF-190" style="edgeStyle=orthogonalEdgeStyle;rounded=0;orthogonalLoop=1;jettySize=auto;html=1;exitX=0.5;exitY=1;exitDx=0;exitDy=0;" edge="1" parent="1" source="VwAEgQhKf6glLCc3ZZtF-182">
          <mxGeometry relative="1" as="geometry">
            <mxPoint x="424.2857142857142" y="1420" as="targetPoint" />
          </mxGeometry>
        </mxCell>
        <mxCell id="VwAEgQhKf6glLCc3ZZtF-182" value="Final check before glucose delivery." style="text;html=1;align=center;verticalAlign=middle;whiteSpace=wrap;rounded=0;" vertex="1" parent="1">
          <mxGeometry x="324.5" y="1370" width="200" height="30" as="geometry" />
        </mxCell>
        <mxCell id="VwAEgQhKf6glLCc3ZZtF-184" value="" style="rounded=1;whiteSpace=wrap;html=1;fillColor=#00FFFF;" vertex="1" parent="1">
          <mxGeometry x="263.75" y="1460" width="320" height="50" as="geometry" />
        </mxCell>
        <mxCell id="VwAEgQhKf6glLCc3ZZtF-185" value="&lt;b&gt;&lt;font style=&quot;font-size: 14px;&quot;&gt;Phase 14: Glucose Feed (Pump A, Gravimetric)&lt;/font&gt;&lt;/b&gt;" style="text;html=1;align=center;verticalAlign=middle;whiteSpace=wrap;rounded=0;" vertex="1" parent="1">
          <mxGeometry x="263.75" y="1460" width="320" height="30" as="geometry" />
        </mxCell>
        <mxCell id="VwAEgQhKf6glLCc3ZZtF-186" style="edgeStyle=orthogonalEdgeStyle;rounded=0;orthogonalLoop=1;jettySize=auto;html=1;exitX=0.5;exitY=1;exitDx=0;exitDy=0;entryX=0.5;entryY=1;entryDx=0;entryDy=0;" edge="1" parent="1" source="VwAEgQhKf6glLCc3ZZtF-187" target="VwAEgQhKf6glLCc3ZZtF-187">
          <mxGeometry relative="1" as="geometry">
            <mxPoint x="67.75" y="1520" as="targetPoint" />
          </mxGeometry>
        </mxCell>
        <mxCell id="VwAEgQhKf6glLCc3ZZtF-199" style="edgeStyle=orthogonalEdgeStyle;rounded=0;orthogonalLoop=1;jettySize=auto;html=1;exitX=0.5;exitY=1;exitDx=0;exitDy=0;" edge="1" parent="1" source="VwAEgQhKf6glLCc3ZZtF-187">
          <mxGeometry relative="1" as="geometry">
            <mxPoint x="423.7142857142858" y="1530" as="targetPoint" />
          </mxGeometry>
        </mxCell>
        <mxCell id="VwAEgQhKf6glLCc3ZZtF-187" value="Dispense Glucose to match target weight." style="text;html=1;align=center;verticalAlign=middle;whiteSpace=wrap;rounded=0;" vertex="1" parent="1">
          <mxGeometry x="308.75" y="1480" width="230" height="30" as="geometry" />
        </mxCell>
        <mxCell id="VwAEgQhKf6glLCc3ZZtF-188" value="" style="rounded=1;whiteSpace=wrap;html=1;fillColor=light-dark(#FFCC99,#FFCC99);" vertex="1" parent="1">
          <mxGeometry x="349.5" y="1420" width="150" height="20" as="geometry" />
        </mxCell>
        <mxCell id="VwAEgQhKf6glLCc3ZZtF-192" style="edgeStyle=orthogonalEdgeStyle;rounded=0;orthogonalLoop=1;jettySize=auto;html=1;exitX=0.5;exitY=1;exitDx=0;exitDy=0;" edge="1" parent="1" source="VwAEgQhKf6glLCc3ZZtF-189">
          <mxGeometry relative="1" as="geometry">
            <mxPoint x="424.2857142857142" y="1460" as="targetPoint" />
          </mxGeometry>
        </mxCell>
        <mxCell id="VwAEgQhKf6glLCc3ZZtF-189" value="&lt;font style=&quot;font-size: 11px;&quot;&gt;&lt;i&gt;If Glucose target volume &amp;gt; 0&amp;nbsp;&lt;/i&gt;&lt;/font&gt;" style="text;html=1;align=center;verticalAlign=middle;whiteSpace=wrap;rounded=0;fillColor=none;" vertex="1" parent="1">
          <mxGeometry x="349.5" y="1420" width="150" height="20" as="geometry" />
        </mxCell>
        <mxCell id="VwAEgQhKf6glLCc3ZZtF-219" style="edgeStyle=orthogonalEdgeStyle;rounded=0;orthogonalLoop=1;jettySize=auto;html=1;exitX=1;exitY=0.75;exitDx=0;exitDy=0;entryX=0.5;entryY=1;entryDx=0;entryDy=0;" edge="1" parent="1" source="VwAEgQhKf6glLCc3ZZtF-193" target="VwAEgQhKf6glLCc3ZZtF-215">
          <mxGeometry relative="1" as="geometry" />
        </mxCell>
        <mxCell id="VwAEgQhKf6glLCc3ZZtF-193" value="" style="rounded=1;whiteSpace=wrap;html=1;fillColor=#FFB366;" vertex="1" parent="1">
          <mxGeometry x="328.75" y="1570" width="190" height="50" as="geometry" />
        </mxCell>
        <mxCell id="VwAEgQhKf6glLCc3ZZtF-194" value="&lt;b&gt;&lt;font style=&quot;font-size: 14px;&quot;&gt;Phase 15: Wrap-Up &amp;amp; Loop&lt;/font&gt;&lt;/b&gt;" style="text;html=1;align=center;verticalAlign=middle;whiteSpace=wrap;rounded=0;" vertex="1" parent="1">
          <mxGeometry x="328.75" y="1570" width="190" height="30" as="geometry" />
        </mxCell>
        <mxCell id="VwAEgQhKf6glLCc3ZZtF-195" style="edgeStyle=orthogonalEdgeStyle;rounded=0;orthogonalLoop=1;jettySize=auto;html=1;exitX=0.5;exitY=1;exitDx=0;exitDy=0;entryX=0.5;entryY=1;entryDx=0;entryDy=0;" edge="1" parent="1" source="VwAEgQhKf6glLCc3ZZtF-196" target="VwAEgQhKf6glLCc3ZZtF-196">
          <mxGeometry relative="1" as="geometry">
            <mxPoint x="132.75" y="1630" as="targetPoint" />
          </mxGeometry>
        </mxCell>
        <mxCell id="VwAEgQhKf6glLCc3ZZtF-196" value="Finish current feed event." style="text;html=1;align=center;verticalAlign=middle;whiteSpace=wrap;rounded=0;" vertex="1" parent="1">
          <mxGeometry x="353.75" y="1590" width="140" height="30" as="geometry" />
        </mxCell>
        <mxCell id="VwAEgQhKf6glLCc3ZZtF-197" value="" style="rounded=1;whiteSpace=wrap;html=1;fillColor=light-dark(#FFCC99,#FFCC99);" vertex="1" parent="1">
          <mxGeometry x="348.44" y="1530" width="150.37" height="20" as="geometry" />
        </mxCell>
        <mxCell id="VwAEgQhKf6glLCc3ZZtF-200" style="edgeStyle=orthogonalEdgeStyle;rounded=0;orthogonalLoop=1;jettySize=auto;html=1;exitX=0.5;exitY=1;exitDx=0;exitDy=0;" edge="1" parent="1" source="VwAEgQhKf6glLCc3ZZtF-198">
          <mxGeometry relative="1" as="geometry">
            <mxPoint x="423.7142857142858" y="1570" as="targetPoint" />
          </mxGeometry>
        </mxCell>
        <mxCell id="VwAEgQhKf6glLCc3ZZtF-198" value="&lt;font style=&quot;font-size: 11px;&quot;&gt;&lt;i&gt;When Glucose target reached&lt;/i&gt;&lt;/font&gt;" style="text;html=1;align=center;verticalAlign=middle;whiteSpace=wrap;rounded=0;fillColor=none;" vertex="1" parent="1">
          <mxGeometry x="348" y="1530" width="152" height="20" as="geometry" />
        </mxCell>
        <mxCell id="VwAEgQhKf6glLCc3ZZtF-214" style="edgeStyle=orthogonalEdgeStyle;rounded=0;orthogonalLoop=1;jettySize=auto;html=1;exitX=0.5;exitY=1;exitDx=0;exitDy=0;entryX=1;entryY=0.5;entryDx=0;entryDy=0;" edge="1" parent="1" source="VwAEgQhKf6glLCc3ZZtF-206" target="VwAEgQhKf6glLCc3ZZtF-194">
          <mxGeometry relative="1" as="geometry" />
        </mxCell>
        <mxCell id="VwAEgQhKf6glLCc3ZZtF-206" value="" style="rounded=1;whiteSpace=wrap;html=1;fillColor=light-dark(#FFCC99,#FFCC99);" vertex="1" parent="1">
          <mxGeometry x="598" y="1350" width="100" height="40" as="geometry" />
        </mxCell>
        <mxCell id="VwAEgQhKf6glLCc3ZZtF-207" value="&lt;font style=&quot;font-size: 11px;&quot;&gt;&lt;i&gt;Warn and restart loop&lt;/i&gt;&lt;/font&gt;" style="text;html=1;align=center;verticalAlign=middle;whiteSpace=wrap;rounded=0;fillColor=none;" vertex="1" parent="1">
          <mxGeometry x="599.25" y="1360" width="97.5" height="20" as="geometry" />
        </mxCell>
        <mxCell id="VwAEgQhKf6glLCc3ZZtF-209" value="" style="rounded=1;whiteSpace=wrap;html=1;fillColor=light-dark(#FFCC99,#FFCC99);" vertex="1" parent="1">
          <mxGeometry x="90" y="1470" width="150" height="20" as="geometry" />
        </mxCell>
        <mxCell id="VwAEgQhKf6glLCc3ZZtF-212" style="edgeStyle=orthogonalEdgeStyle;rounded=0;orthogonalLoop=1;jettySize=auto;html=1;exitX=0.5;exitY=1;exitDx=0;exitDy=0;entryX=0;entryY=0.5;entryDx=0;entryDy=0;" edge="1" parent="1" source="VwAEgQhKf6glLCc3ZZtF-210" target="VwAEgQhKf6glLCc3ZZtF-193">
          <mxGeometry relative="1" as="geometry" />
        </mxCell>
        <mxCell id="VwAEgQhKf6glLCc3ZZtF-210" value="&lt;font style=&quot;font-size: 11px;&quot;&gt;&lt;i&gt;If Glucose target volume = 0&amp;nbsp;&lt;/i&gt;&lt;/font&gt;" style="text;html=1;align=center;verticalAlign=middle;whiteSpace=wrap;rounded=0;fillColor=none;" vertex="1" parent="1">
          <mxGeometry x="90" y="1470" width="150" height="20" as="geometry" />
        </mxCell>
        <mxCell id="VwAEgQhKf6glLCc3ZZtF-220" style="edgeStyle=orthogonalEdgeStyle;rounded=0;orthogonalLoop=1;jettySize=auto;html=1;exitX=0.5;exitY=0;exitDx=0;exitDy=0;entryX=1;entryY=0.5;entryDx=0;entryDy=0;" edge="1" parent="1" source="VwAEgQhKf6glLCc3ZZtF-215" target="VwAEgQhKf6glLCc3ZZtF-13">
          <mxGeometry relative="1" as="geometry" />
        </mxCell>
        <mxCell id="VwAEgQhKf6glLCc3ZZtF-215" value="" style="rounded=1;whiteSpace=wrap;html=1;fillColor=light-dark(#FFCC99,#FFCC99);" vertex="1" parent="1">
          <mxGeometry x="649" y="915" width="150" height="40" as="geometry" />
        </mxCell>
        <mxCell id="VwAEgQhKf6glLCc3ZZtF-216" value="&lt;font style=&quot;font-size: 11px;&quot;&gt;&lt;i&gt;Return for next scheduled feed event&lt;/i&gt;&lt;/font&gt;" style="text;html=1;align=center;verticalAlign=middle;whiteSpace=wrap;rounded=0;fillColor=none;" vertex="1" parent="1">
          <mxGeometry x="654" y="925" width="140" height="20" as="geometry" />
        </mxCell>
      </root>
    </mxGraphModel>
  </diagram>
</mxfile>
